<svg width="103" height="103" viewBox="0 0 103 103" fill="none" xmlns="http://www.w3.org/2000/svg">
<g id="logo">
<path id="border" d="M101.5 51.5C101.5 64.7297 96.2568 77.4202 86.9188 86.7918C77.5807 96.1634 64.9091 101.452 51.6795 101.5C38.4499 101.547 25.7406 96.3495 16.3356 87.0452C6.93049 77.7409 1.59628 65.0884 1.50129 51.859C1.4063 38.6296 6.55828 25.9018 15.8288 16.4634C25.0993 7.02499 37.7325 1.64539 50.9615 1.5029C64.1905 1.36042 76.9367 6.46667 86.4083 15.7032C95.8799 24.9398 101.305 37.5536 101.495 50.782L101.5 51.5Z" fill="white" fill-opacity="0.1417" stroke="#87B583" stroke-opacity="0.955645" stroke-width="3"/>
<path id="Right" d="M74.9545 64.8109C70.3365 72.8094 65.0477 79.9882 60.2405 84.7829C55.4334 89.5775 51.4977 91.5993 49.2911 90.4075C47.0846 89.2157 46.7861 84.907 48.4608 78.4204C50.1354 71.9339 53.6474 63.7953 58.2314 55.7784C62.8153 47.7616 68.0996 40.5163 72.9325 35.6218C77.7655 30.7272 81.7553 28.5801 84.0325 29.6483C86.3096 30.7166 86.6895 34.9137 85.0893 41.3248C83.4891 47.736 80.0386 55.8415 75.4897 63.8748L74.9545 64.8109Z" fill="#88B89F"/>
<path id="Left" d="M41.9545 55.3109C46.5724 63.3094 50.1451 71.4791 51.8938 78.0395C53.6425 84.6 53.4255 89.0193 51.2901 90.3343C49.1547 91.6493 45.274 89.7534 40.4938 85.0599C35.7136 80.3663 30.4214 73.2555 25.7706 65.2773C21.1198 57.2991 17.4873 49.1001 15.665 42.4674C13.8426 35.8346 13.9781 31.3058 16.0418 29.8679C18.1055 28.4299 21.9303 30.1995 26.6824 34.7909C31.4345 39.3822 36.7288 46.4232 41.4114 54.3793L41.9545 55.3109Z" fill="#ADC687"/>
<path id="center" d="M60.7698 53.5C60.7698 63.3956 59.6746 72.8901 57.7229 79.9142C55.7713 86.9383 53.1213 90.9227 50.3507 90.9989C47.58 91.0751 44.9132 87.237 42.9314 80.3211C40.9497 73.4052 39.8137 63.9721 39.771 54.0777C39.7283 44.1833 40.7824 34.6297 42.7036 27.499C44.6247 20.3684 47.2571 16.2387 50.0271 16.01C52.7972 15.7814 55.4802 19.4723 57.4915 26.2783C59.5029 33.0844 60.6794 42.4538 60.7648 52.3447L60.7698 53.5Z" fill="#87B583" fill-opacity="0.956863"/>
</g>
</svg>
